HIERARCHY
ROOT RootJoint
{
    OFFSET   0.000000   0.000000   0.000000
    CHANNELS 6 Xposition Yposition Zposition Xrotation Yrotation Zrotation
    JOINT pelvis_lowerback
    {
        OFFSET   0.000000   0.093605   0.000000
        CHANNELS 3 Xrotation Yrotation Zrotation
        JOINT lowerback_torso
        {
            OFFSET   0.000000   0.100000   0.000000
            CHANNELS 3 Xrotation Yrotation Zrotation
            JOINT torso_head
            {
                OFFSET   0.000000   0.282350   0.000000
                CHANNELS 3 Xrotation Yrotation Zrotation
                End Site
                {
                    OFFSET   0.000000   0.192650   0.000000
                }
            }
            JOINT rTorso_Clavicle
            {
                OFFSET  -0.001000   0.157500   0.000000
                CHANNELS 3 Xrotation Yrotation Zrotation
                JOINT rShoulder
                {
                    OFFSET  -0.117647   0.000000   0.000000
                    CHANNELS 3 Xrotation Yrotation Zrotation
                    JOINT rElbow
                    {
                        OFFSET  -0.245000   0.000000   0.000000
                        CHANNELS 3 Xrotation Yrotation Zrotation
                        JOINT rWrist
                        {
                            OFFSET  -0.240000   0.000000   0.000000
                            CHANNELS 3 Xrotation Yrotation Zrotation
                            End Site
                            {
                                OFFSET  -0.116353  -0.002500   0.000000
                            }
                        }
                    }
                }
            }
            JOINT lTorso_Clavicle
            {
                OFFSET   0.001000   0.157500   0.000000
                CHANNELS 3 Xrotation Yrotation Zrotation
                JOINT lShoulder
                {
                    OFFSET   0.117647   0.000000   0.000000
                    CHANNELS 3 Xrotation Yrotation Zrotation
                    JOINT lElbow
                    {
                        OFFSET   0.245000   0.000000   0.000000
                        CHANNELS 3 Xrotation Yrotation Zrotation
                        JOINT lWrist
                        {
                            OFFSET   0.240000   0.000000   0.000000
                            CHANNELS 3 Xrotation Yrotation Zrotation
                            End Site
                            {
                                OFFSET   0.116353  -0.002500   0.000000
                            }
                        }
                    }
                }
            }
        }
    }
    JOINT rHip
    {
        OFFSET  -0.100000  -0.051395   0.000000
        CHANNELS 3 Xrotation Yrotation Zrotation
        JOINT rKnee
        {
            OFFSET   0.000000  -0.410000   0.000000
            CHANNELS 3 Xrotation Yrotation Zrotation
            JOINT rAnkle
            {
                OFFSET   0.000000  -0.390000   0.000000
                CHANNELS 3 Xrotation Yrotation Zrotation
                JOINT rToeJoint
                {
                    OFFSET   0.000000  -0.050000   0.130000
                    CHANNELS 3 Xrotation Yrotation Zrotation
                    End Site
                    {
                        OFFSET  -0.010000   0.002000   0.060000
                    }
                }
            }
        }
    }
    JOINT lHip
    {
        OFFSET   0.100000  -0.051395   0.000000
        CHANNELS 3 Xrotation Yrotation Zrotation
        JOINT lKnee
        {
            OFFSET   0.000000  -0.410000   0.000000
            CHANNELS 3 Xrotation Yrotation Zrotation
            JOINT lAnkle
            {
                OFFSET   0.000000  -0.390000   0.000000
                CHANNELS 3 Xrotation Yrotation Zrotation
                JOINT lToeJoint
                {
                    OFFSET   0.000000  -0.050000   0.130000
                    CHANNELS 3 Xrotation Yrotation Zrotation
                    End Site
                    {
                        OFFSET   0.010000   0.002000   0.060000
                    }
                }
            }
        }
    }
}
MOTION
Frames: 14
Frame Time:   0.008333
 -2.376719   0.925631   3.975860   0.000000   0.000000   0.000000   0.000000   0.000000   0.000000   0.000000   0.000000   0.000000   0.000000   0.000000   0.000000   0.000000   0.000000   0.000000   0.000000   0.000000   0.000000   0.000000   0.000000   0.000000   0.000000   0.000000   0.000000   0.000000   0.000000   0.000000   0.000000   0.000000   0.000000   0.000000   0.000000   0.000000   0.000000   0.000000   0.000000   0.000000   0.000000   0.000000   0.000000   0.000000   0.000000   0.000000   0.000000   0.000000   0.000000   0.000000   0.000000   0.000000   0.000000   0.000000   0.000000   0.000000   0.000000   0.000000   0.000000   0.000000   0.000000   0.000000   0.000000
 -2.377106   0.926103   3.975764  -0.482860   0.313103  -0.215820   0.466937  -0.061761   0.012940   0.311795  -0.290020   0.240617   0.096181  -0.017669   0.166783   0.170269  -0.629591   0.149564   0.458604   0.274647   2.200668   0.027174   1.298796  -0.010676   0.186872  -0.261525  -2.754853   0.310118   0.342303  -0.238143   0.972605   0.112171  -2.131445   0.024274  -1.182755   0.016448   0.339411   0.101872   2.510826  -0.043900  -0.463566   0.323418   2.027033  -0.001966  -0.002615  -2.078146  -0.821227  -0.505180   0.424550   0.001451  -0.003620  -0.479261  -0.036269   0.276669   3.238105  -0.001504   0.007933  -2.879062   0.656016  -0.131332   0.288103   0.000174   0.002345
 -2.377598   0.926865   3.976231  -1.097691   0.615628  -0.465738   0.911294  -0.119550   0.029246   0.733312  -0.591123   0.513383   0.258801  -0.035226   0.344378   0.340558  -1.282597   0.997420   0.897369   0.549259   4.955960   0.061874   2.545858  -0.017765   0.418142  -0.152486  -4.803160   0.617990   0.699792  -1.150895   1.939446   0.196409  -4.809844   0.055304  -2.312158   0.028207   0.738283  -0.084526   4.318163   0.060215  -0.912871   0.703981   4.213850  -0.004327  -0.004664  -4.023426  -1.581556  -1.005904   0.742333   0.002128  -0.005442  -0.803386  -0.050748   0.602600   6.831632  -0.002276   0.015826  -5.558665   1.285083  -0.221488   0.485307   0.000178   0.003463
 -2.378102   0.927528   3.977150  -1.688427   0.878851  -0.708025   1.266913  -0.177445   0.041924   1.115757  -0.878813   0.777573   0.424780  -0.051052   0.511461   0.513035  -1.920421   2.277849   1.315710   0.817226   8.072794   0.095036   3.704821  -0.020983   0.648693   0.006949  -6.046533   0.913043   1.048754  -2.477756   2.897132   0.248728  -7.844163   0.085150  -3.362213   0.035237   1.129328  -0.310093   5.350788   0.196404  -1.329648   1.082320   6.314342  -0.006371  -0.006144  -5.842226  -2.274661  -1.497156   1.036979   0.002540  -0.006565  -1.009916  -0.063463   0.921147  10.294372  -0.001965   0.020835  -8.051370   1.876521  -0.276664   0.688035   0.000132   0.004278
 -2.378591   0.927827   3.978383  -2.226777   1.106264  -0.934267   1.543524  -0.240263   0.050299   1.435071  -1.154862   1.025403   0.577689  -0.065506   0.666296   0.693529  -2.539936   3.806408   1.717579   1.080793  11.432386   0.122859   4.777495  -0.021486   0.864558   0.135426  -6.690881   1.197961   1.385813  -4.042640   3.849365   0.261318 -11.119804   0.110439  -4.336359   0.038944   1.500397  -0.518142   5.809042   0.331435  -1.716948   1.444728   8.288820  -0.007975  -0.007138  -7.545792  -2.906483  -1.976702   1.302695   0.002745  -0.007122  -1.136261  -0.076399   1.218432  13.563227  -0.001019   0.023378 -10.377233   2.430190  -0.302752   0.872092   0.000065   0.004677
 -2.379057   0.927573   3.979823  -2.714297   1.299670  -1.144266   1.757795  -0.309081   0.055129   1.699125  -1.421462   1.256282   0.716214  -0.078764   0.809927   0.885647  -3.141184   5.460353   2.105719   1.341986  14.953650   0.144062   5.768744  -0.020287   1.061290   0.212612  -6.929009   1.474979   1.709925  -5.727568   4.797254   0.228322 -14.557993   0.130007  -5.239982   0.040495   1.848783  -0.697264   5.877718   0.456672  -2.077049   1.789262  10.136097  -0.009171  -0.007772  -9.141886  -3.482416  -2.442491   1.541104   0.002800  -0.007275  -1.201582  -0.088638   1.492298  16.637224   0.000155   0.024051 -12.548967   2.947331  -0.304794   1.035328  -0.000009   0.004757
 -2.379499   0.926627   3.981384  -3.157546   1.458684  -1.339533   1.924490  -0.383710   0.057045   1.920124  -1.679801   1.471053   0.841870  -0.090904   0.943490   1.091102  -3.723121   7.158824   2.481706   1.603501  18.581697   0.158707   6.684263  -0.018124   1.238733   0.236332  -6.903989   1.745300   2.019806  -7.453917   5.739853   0.145186 -18.104513   0.143865  -6.078641   0.040727   2.175093  -0.848135   5.694381   0.569119  -2.412028   2.116553  11.862188  -0.010024  -0.008175 -10.637175  -4.007408  -2.892886   1.755350   0.002750  -0.007160  -1.218676  -0.099359   1.743328  19.525147   0.001279   0.023331 -14.577252   3.429547  -0.287118   1.179862  -0.000080   0.004620
 -2.380202   0.924397   3.982405  -3.511966   1.591126  -1.647953   2.106501  -0.365449   0.188168   2.153054  -2.013286   1.630312   0.828670  -0.196934   1.057983   1.368274  -4.008099   8.189164   2.848343   1.739768  22.313396   0.183173   8.013670  -0.019674   1.224731  -0.119280  -5.907132   2.104896   2.295391  -8.427735   6.692479  -0.165374 -21.797025   0.148858  -6.864835   0.042065   2.386151  -1.003993   4.610388   0.618931  -2.889766   2.658191  13.784877  -0.013427  -0.010975 -12.427904  -4.578773  -3.386426   2.126576   0.002826  -0.008754  -1.212288   0.159930   2.130899  21.143830   0.002641   0.024288 -15.029031   3.977798  -0.001905   1.259158  -0.000309   0.004363
 -2.381018   0.921026   3.982982  -3.821188   1.779593  -1.958141   2.334049  -0.349727   0.306328   2.389771  -2.326616   1.777671   0.808291  -0.302898   1.162376   1.611805  -4.196489   9.012216   3.162985   1.942217  25.715714   0.194041   9.284043  -0.021387   1.234936  -0.330131  -4.900501   2.421334   2.492001  -9.181945   7.547220  -0.546337 -25.143276   0.147999  -7.615545   0.042442   2.598249  -1.232904   3.540348   0.742334  -3.353766   3.271438  15.631404  -0.016915  -0.011475 -14.106179  -5.099086  -3.864948   2.448591   0.002596  -0.009265  -1.391905   0.405887   2.500539  22.448495   0.003988   0.024362 -15.447261   4.489972   0.271622   1.423446  -0.000643   0.004887
 -2.381871   0.916602   3.983275  -4.105145   1.975759  -2.248169   2.592908  -0.310004   0.401377   2.634403  -2.596696   1.906418   0.793983  -0.402075   1.257988   1.820536  -4.316716   9.683609   3.427032   2.185109  28.823549   0.195366  10.487039  -0.022930   1.262263  -0.437036  -4.055947   2.698388   2.641876  -9.784655   8.311572  -0.964139 -28.186643   0.143263  -8.326461   0.041776   2.804579  -1.507365   2.649124   0.955312  -3.783889   3.913537  17.384082  -0.019963  -0.010760 -15.676453  -5.570250  -4.326006   2.745759   0.002259  -0.009243  -1.721486   0.634007   2.819558  23.578382   0.005208   0.023571 -15.843505   4.965453   0.532090   1.571890  -0.000774   0.005116
 -2.382729   0.911186   3.983396  -4.368564   2.157350  -2.516268   2.867067  -0.239155   0.476915   2.881424  -2.817069   2.015579   0.786012  -0.494265   1.345785   1.997750  -4.388565  10.234180   3.645593   2.450853  31.670917   0.190299  11.622629  -0.024119   1.299227  -0.470494  -3.365734   2.946789   2.770393 -10.275167   8.998524  -1.393136 -30.969620   0.136007  -8.994033   0.040170   3.001145  -1.794419   1.915941   1.251518  -4.179970   4.569311  19.045716  -0.022439  -0.009567 -17.145487  -5.997346  -4.768532   3.020512   0.001892  -0.008919  -2.165191   0.844913   3.085337  24.574721   0.006197   0.022102 -16.217588   5.406680   0.779337   1.706003  -0.000773   0.005110
 -2.383524   0.905527   3.983439  -4.559289   2.262714  -2.654937   3.094316  -0.121557   0.446158   3.104007  -2.977634   2.068669   0.783051  -0.579313   1.424095   2.149615  -4.427796  10.737737   3.825553   2.726766  34.305996   0.181603  12.690433  -0.024672   1.341666  -0.456741  -2.803940   3.181208   2.902590 -10.714896   9.623358  -1.810888 -33.531925   0.127358  -9.612313   0.037785   3.185578  -2.049279   1.315162   1.564402  -4.536692   5.119775  20.597676  -0.024437  -0.008761 -18.518131  -6.385238  -5.191874   3.287462   0.001522  -0.008587  -2.522888   1.043741   3.198389  25.789591   0.007257   0.020560 -17.164329   5.802565   0.955555  -3.678475   0.002505  -0.029889
 -2.384202   0.901180   3.983210  -4.705570   2.397234  -2.481562   3.331086  -0.007083   0.186363   3.308575  -3.119635   2.007892   0.780387  -0.659659   1.486962   2.277846  -4.435919  11.292248   3.969563   3.010686  36.789816   0.171696  13.690232  -0.025208   1.383890  -0.423906  -2.327044   3.386366   3.010186 -11.176768  10.180369  -2.232840 -35.911256   0.118519 -10.185890   0.035036   3.357906  -2.258190   0.820121   1.897518  -4.851614   5.413808  22.022157  -0.025756  -0.006775 -19.797950  -6.740166  -5.597927   3.566247   0.001103  -0.008092  -2.937634   1.262123   3.047736  27.122128   0.008048   0.020182 -18.952970   6.202840   0.977931  -3.088849   0.002083  -0.019875
 -2.384380   0.898028   3.982582  -4.661365   2.233494  -2.063751   3.496403   0.226927  -0.153092   3.345298  -3.137005   1.837942   0.767821  -0.863668   1.394173   2.347353  -4.338266  11.490056   4.069950   3.148936  38.797090   0.158432  14.756773  -0.024933   1.336465  -0.357029  -1.076707   3.595915   3.205744 -11.228502  10.648102  -2.752025 -38.051687   0.108118 -10.775237   0.032219   3.464129  -2.409241  -0.452646   2.351246  -4.995006   5.314751  21.897449  -0.020164  -0.005266 -20.336312  -6.828897  -5.820185   4.003739   0.000378  -0.008069  -3.709249   1.437200   2.623936  28.604924   0.007445   0.016045 -19.800716   6.184175   1.234448  -2.616226   0.000659  -0.015941
